<svg xmlns="http://www.w3.org/2000/svg" xmlns:xlink="http://www.w3.org/1999/xlink" width="147.043" height="147.043" viewBox="0 0 147.043 147.043"><defs><style>.a{opacity:0.3;isolation:isolate;fill:url(#a);}.b{fill:#e8e9ed;}</style><linearGradient id="a" y1="0.5" x2="1" y2="0.5" gradientUnits="objectBoundingBox"><stop offset="0"/><stop offset="1"/></linearGradient></defs><g transform="translate(-1625.74 -870.892)"><rect class="a" width="147.043" height="147.043" rx="5" transform="translate(1772.783 870.892) rotate(90)"/><path class="b" d="M1676.54,936.323V922.194a.5.5,0,0,1,.5-.5h14.129a.5.5,0,0,1,.5.5v4.039a.5.5,0,0,1-.5.5h-9.083a.5.5,0,0,0-.5.5v9.09a.5.5,0,0,1-.5.5h-4.046A.5.5,0,0,1,1676.54,936.323Z"/><path class="b" d="M1721.476,936.833h-4.026a.5.5,0,0,1-.5-.5v-9.1a.5.5,0,0,0-.5-.5h-9.1a.5.5,0,0,1-.5-.5V922.2a.5.5,0,0,1,.5-.5h14.126a.5.5,0,0,1,.5.5v14.134A.5.5,0,0,1,1721.476,936.833Z"/><path class="b" d="M1691.674,962.587v4.046a.5.5,0,0,1-.5.5h-14.132a.5.5,0,0,1-.5-.5V952.5a.5.5,0,0,1,.5-.5h4.032a.5.5,0,0,1,.5.5v9.084a.5.5,0,0,0,.5.5h9.1A.5.5,0,0,1,1691.674,962.587Z"/><path class="b" d="M1717.435,952h4.048a.5.5,0,0,1,.5.5v14.129a.5.5,0,0,1-.5.5h-14.131a.5.5,0,0,1-.5-.5V962.6a.5.5,0,0,1,.5-.5h9.083a.5.5,0,0,0,.5-.5v-9.1A.5.5,0,0,1,1717.435,952Z"/></g></svg>