<?xml version="1.0" encoding="utf-8"?>
<!-- Generator: Adobe Illustrator 26.0.3, SVG Export Plug-In . SVG Version: 6.00 Build 0)  -->
<svg version="1.1" id="Layer_1" xmlns="http://www.w3.org/2000/svg" xmlns:xlink="http://www.w3.org/1999/xlink" x="0px" y="0px"
	 viewBox="0 0 147 147" style="enable-background:new 0 0 147 147;" xml:space="preserve">
<style type="text/css">
	.st0{opacity:0.3;fill:url(#SVGID_1_);enable-background:new    ;}
	.st1{fill:#E8E9ED;}
</style>
<g transform="translate(-1478.698 -870.892)">
	
		<linearGradient id="SVGID_1_" gradientUnits="userSpaceOnUse" x1="596.8604" y1="1491.4106" x2="597.8604" y2="1491.4106" gradientTransform="matrix(9.003787e-15 147.043 147.043 -9.003787e-15 -217749.2812 -86893.2422)">
		<stop  offset="0" style="stop-color:#000000"/>
		<stop  offset="1" style="stop-color:#000000"/>
	</linearGradient>
	<path class="st0" d="M1625.7,875.9v137c0,2.8-2.2,5-5,5h-137c-2.8,0-5-2.2-5-5v-137c0-2.8,2.2-5,5-5h137
		C1623.5,870.9,1625.7,873.1,1625.7,875.9z"/>
	<g>
		<path class="st1" d="M1556.2,944.4c0,4.9,0,9.9,0,14.8c0,1.8-1,3-2.6,3.3c-1.1,0.2-2-0.2-2.8-1c-3-2.8-6.1-5.5-9.1-8.3
			c-0.6-0.5-1.2-0.7-2-0.7c-2.3,0-4.6,0-6.9,0c-2,0-3.3-1.3-3.3-3.4c0-3.2,0-6.5,0-9.7c0-2.2,1.3-3.4,3.5-3.4c2.4,0,4.7,0,7.1,0
			c0.6,0,1-0.2,1.5-0.6c3.1-2.8,6.3-5.6,9.4-8.4c1.9-1.6,4.5-1,5.1,1.3c0.1,0.5,0.1,1,0.1,1.6
			C1556.2,934.8,1556.2,939.6,1556.2,944.4z"/>
		<path class="st1" d="M1567.8,944.5c-1.9-1.9-3.7-3.7-5.5-5.5c-0.6-0.6-0.8-1.2-0.3-1.9c0.6-0.8,1.4-0.8,2.2,0
			c1.6,1.5,3.1,3.1,4.7,4.7c0.2,0.2,0.4,0.5,0.8,0.9c0.5-0.6,0.9-1.1,1.4-1.6c1.3-1.3,2.6-2.6,3.9-3.9c0.8-0.8,1.5-0.9,2.1-0.2
			c0.6,0.6,0.5,1.4-0.3,2.1c-1.7,1.7-3.5,3.5-5.3,5.3c0.2,0.3,0.4,0.5,0.7,0.7c1.6,1.6,3.1,3.1,4.7,4.7c0.8,0.8,0.8,1.5,0.2,2.1
			c-0.6,0.6-1.3,0.5-2.1-0.2c-1.6-1.5-3.1-3.1-4.7-4.7c-0.2-0.2-0.4-0.5-0.6-0.8c-2,2-3.8,3.8-5.6,5.6c-0.8,0.8-1.9,0.6-2.3-0.3
			c-0.3-0.7,0-1.2,0.5-1.6c1.5-1.5,3.1-3.1,4.6-4.6C1567.2,944.9,1567.5,944.8,1567.8,944.5z"/>
	</g>
</g>
</svg>
