<svg xmlns="http://www.w3.org/2000/svg" xmlns:xlink="http://www.w3.org/1999/xlink" width="147.043" height="147.043" viewBox="0 0 147.043 147.043"><defs><style>.a{opacity:0.3;isolation:isolate;fill:url(#a);}.b{fill:#e8e9ed;}</style><linearGradient id="a" y1="0.5" x2="1" y2="0.5" gradientUnits="objectBoundingBox"><stop offset="0"/><stop offset="1"/></linearGradient></defs><g transform="translate(-1331.655 -870.892)"><rect class="a" width="147.043" height="147.043" rx="5" transform="translate(1478.698 870.892) rotate(90)"/><path class="b" d="M1427.676,936.518v21.961c-.018.11-.039.22-.055.33a6.151,6.151,0,0,1-6.073,5.226q-16.354-.033-32.71-.011a6.055,6.055,0,0,1-5.886-4.234,11.111,11.111,0,0,1-.276-1.266V936.383c.036-.205.068-.411.108-.615a6.113,6.113,0,0,1,6.052-4.927c1.619.026,3.239,0,4.859.01a.276.276,0,0,0,.314-.227c.236-.71.477-1.418.733-2.121a7.617,7.617,0,0,1,.6-1.469,4.456,4.456,0,0,1,3.917-2.233c3.952-.015,7.9-.006,11.855,0a3.464,3.464,0,0,1,.782.068,4.485,4.485,0,0,1,3.475,2.958c.345.98.663,1.97.984,2.959a.246.246,0,0,0,.281.2q2.125-.01,4.252,0c.464,0,.931,0,1.392.041a5.929,5.929,0,0,1,5.122,4.2C1427.527,935.647,1427.587,936.087,1427.676,936.518Zm-22.619.508a10.635,10.635,0,0,0-10.569,10.542,10.545,10.545,0,1,0,10.569-10.542Z"/><path class="b" d="M1405.169,954.19a6.745,6.745,0,1,1,6.756-6.724A6.759,6.759,0,0,1,1405.169,954.19Z"/></g></svg>