<svg xmlns="http://www.w3.org/2000/svg" xmlns:xlink="http://www.w3.org/1999/xlink" width="147.043" height="147.043" viewBox="0 0 147.043 147.043"><defs><style>.a{opacity:0.3;isolation:isolate;fill:url(#a);}.b{fill:#e8e9ed;}</style><linearGradient id="a" y1="0.5" x2="1" y2="0.5" gradientUnits="objectBoundingBox"><stop offset="0"/><stop offset="1"/></linearGradient></defs><g transform="translate(-1772.957 -870.29)"><path class="a" d="M0,0H147.043a0,0,0,0,1,0,0V142.043a5,5,0,0,1-5,5H5a5,5,0,0,1-5-5V0A0,0,0,0,1,0,0Z" transform="translate(1920 870.29) rotate(90)"/><path class="b" d="M1868.783,948.647c-1.458-1.52-2.9-3.054-4.362-4.572-.21-.217-.2-.34,0-.552,1.453-1.511,2.888-3.038,4.341-4.549a.651.651,0,0,0,.176-.7,23.52,23.52,0,0,0-2.7-6.5.577.577,0,0,0-.547-.316c-2.095-.046-4.19-.107-6.285-.164-.409-.011-.41-.012-.421-.426-.057-2.085-.118-4.169-.164-6.254a.6.6,0,0,0-.32-.577,23.554,23.554,0,0,0-6.534-2.708.6.6,0,0,0-.641.166c-1.52,1.458-3.054,2.9-4.572,4.362-.218.21-.34.2-.553,0-1.51-1.453-3.038-2.888-4.548-4.341a.655.655,0,0,0-.7-.176,23.573,23.573,0,0,0-6.5,2.705.579.579,0,0,0-.316.547c-.046,2.1-.107,4.19-.164,6.285-.011.409-.012.41-.426.421-2.095.057-4.19.117-6.285.166a.554.554,0,0,0-.529.292,23.5,23.5,0,0,0-2.726,6.56.6.6,0,0,0,.167.641c1.459,1.519,2.9,3.054,4.362,4.572.21.217.2.34,0,.552-1.453,1.511-2.888,3.038-4.341,4.549a.652.652,0,0,0-.176.7,23.575,23.575,0,0,0,2.7,6.5.579.579,0,0,0,.547.316c2.1.046,4.191.107,6.286.164.408.011.409.012.421.426.057,2.1.116,4.19.165,6.285a.554.554,0,0,0,.292.529,23.406,23.406,0,0,0,6.591,2.731.556.556,0,0,0,.587-.151c1.521-1.458,3.056-2.9,4.572-4.362.237-.229.369-.218.6,0,1.517,1.461,3.048,2.907,4.577,4.357.095.091.178.212.375.193.055-.012.147-.031.238-.054a23.17,23.17,0,0,0,6.534-2.7.579.579,0,0,0,.316-.548c.046-2.095.107-4.19.164-6.284.011-.409.012-.41.426-.421,2.085-.057,4.169-.118,6.254-.164a.6.6,0,0,0,.577-.32,23.554,23.554,0,0,0,2.709-6.534A.6.6,0,0,0,1868.783,948.647Zm-22.315,4.034a8.88,8.88,0,1,1,8.891-8.869A8.892,8.892,0,0,1,1846.468,952.681Z"/></g></svg>