<svg xmlns="http://www.w3.org/2000/svg" xmlns:xlink="http://www.w3.org/1999/xlink" width="44.1" height="46.099" viewBox="0 0 44.1 46.099">
  <defs>
    <clipPath id="clip-path">
      <rect id="Rectangle_59" data-name="Rectangle 59" width="26" height="26" transform="translate(-0.396 -0.694)" fill="#fff"/>
    </clipPath>
  </defs>
  <g id="Group_107" data-name="Group 107" transform="translate(-17.9 -810)">
    <g id="Group_13" data-name="Group 13" transform="translate(17.891 812.904)">
      <path id="Path_21" data-name="Path 21" d="M40.9,107.8l-2.278,2.278A12.892,12.892,0,0,1,25.5,96.948l2.278-2.278a3.375,3.375,0,0,0,0-4.773l-3.044-3.041a3.375,3.375,0,0,0-4.772,0L16.5,90.316a5.035,5.035,0,0,0-1.474,3.876,28.246,28.246,0,0,0,26.353,26.354,5.035,5.035,0,0,0,3.876-1.474l3.459-3.459a3.375,3.375,0,0,0,0-4.772L45.674,107.8A3.375,3.375,0,0,0,40.9,107.8Z" transform="translate(-13.743 -78.627)" fill="#fff"/>
      <path id="Path_22" data-name="Path 22" d="M27.956,43.2q-.2,0-.4-.013A29.514,29.514,0,0,1,.021,15.647,6.3,6.3,0,0,1,1.864,10.8L5.324,7.337a4.646,4.646,0,0,1,6.562,0l3.042,3.037a4.64,4.64,0,0,1,0,6.563l-1.9,1.9A11.627,11.627,0,0,0,24.359,30.18l1.9-1.9a4.64,4.64,0,0,1,6.563,0l3.04,3.042a4.646,4.646,0,0,1,0,6.562l-3.459,3.459A6.306,6.306,0,0,1,27.956,43.2ZM8.6,8.508a2.109,2.109,0,0,0-1.492.617L3.653,12.584a3.765,3.765,0,0,0-1.106,2.9A26.981,26.981,0,0,0,27.719,40.656a3.771,3.771,0,0,0,2.9-1.106l3.459-3.459a2.109,2.109,0,0,0,0-2.983l-3.043-3.042a2.109,2.109,0,0,0-2.983,0l-2.278,2.278a1.26,1.26,0,0,1-.872.37h-.265A14.159,14.159,0,0,1,10.489,18.3a1.266,1.266,0,0,1,.371-.872l2.278-2.278a2.109,2.109,0,0,0,0-2.983L10.1,9.123A2.109,2.109,0,0,0,8.6,8.508Zm16.278,22.94Z" transform="translate(0 0)" fill="#fff"/>
    </g>
    <g id="Group_106" data-name="Group 106" transform="translate(36.396 810.694)" clip-path="url(#clip-path)">
      <path id="Path_156" data-name="Path 156" d="M16.6,24.994a10.556,10.556,0,0,1-3.3.034.76.76,0,0,1-.55-.492l-.624-2.146a1.246,1.246,0,0,0-.5-.635l-2.26-1.3a1.207,1.207,0,0,0-.8-.1l-2.129.57a.747.747,0,0,1-.7-.22,10.515,10.515,0,0,1-1.58-2.719.761.761,0,0,1,.15-.722l1.6-1.669a1.247,1.247,0,0,0,.3-.749V12.228a1.206,1.206,0,0,0-.307-.742L4.3,9.89a.74.74,0,0,1-.157-.715,12.669,12.669,0,0,1,1.566-2.7.762.762,0,0,1,.7-.229L8.691,6.8a1.248,1.248,0,0,0,.8-.114l2.259-1.3a1.206,1.206,0,0,0,.489-.638L12.815,2.6a.737.737,0,0,1,.542-.493,10.51,10.51,0,0,1,3.1.015.747.747,0,0,1,.54.5l.57,2.129a1.208,1.208,0,0,0,.489.638l2.26,1.3a1.207,1.207,0,0,0,.8.1l2.129-.57a.747.747,0,0,1,.7.219,10.55,10.55,0,0,1,1.624,2.827.75.75,0,0,1-.161.717l-1.5,1.5a1.206,1.206,0,0,0-.307.742v2.609a1.206,1.206,0,0,0,.307.742l1.52,1.52a.754.754,0,0,1,.163.718,11.561,11.561,0,0,1-.749,1.529,11.76,11.76,0,0,1-.877,1.321.745.745,0,0,1-.7.221l-2.022-.542a1.207,1.207,0,0,0-.8.1l-2.26,1.3a1.206,1.206,0,0,0-.489.638l-.562,2.1A.76.76,0,0,1,16.6,24.994ZM9.648,13.57a5.218,5.218,0,1,1,5.218,5.218A5.221,5.221,0,0,1,9.648,13.57Z" transform="translate(-2.413 -1.116)" fill="#fff"/>
    </g>
  </g>
</svg>
