<?xml version="1.0" encoding="utf-8"?>
<!-- Generator: Adobe Illustrator 21.0.0, SVG Export Plug-In . SVG Version: 6.00 Build 0)  -->
<svg version="1.1" id="Layer_1" xmlns="http://www.w3.org/2000/svg" xmlns:xlink="http://www.w3.org/1999/xlink" x="0px" y="0px"
	 viewBox="0 0 512 512" style="enable-background:new 0 0 512 512;" xml:space="preserve">
<g>
	<path d="M26.8,0L0,26.8L485.2,512l26.8-26.8L394.8,368c17.9-19.8,29.2-45.8,29.2-74.6v-74.6h-37.3v74.6c0,18.5-6.8,35.4-18.1,48.4
		l-26.2-26.2c4.4-6.1,7-14,7-22.2V69.4c0-20.6-16.8-37.3-37.3-37.3H200c-20.6,0-37.3,16.8-37.3,37.3v66.5L26.8,0z M200,69.4h112
		v215.8l-112-112V69.4z M88.1,218.7v74.6c0,61.7,50.2,112,112,112h37.3v37.3h-74.6v37.3h186.6v-37.3h-74.6v-37.3H312
		c4.7,0,9.4-0.6,14-1.2L289.8,368H200c-41.2,0-74.6-33.5-74.6-74.6v-74.6H88.1z M162.7,240.8v52.5c0,20.6,16.8,37.3,37.3,37.3h52.5
		l-37.3-37.3H200v-15.2L162.7,240.8z"/>
</g>
</svg>
