<?xml version="1.0" encoding="utf-8"?>
<!-- Generator: Adobe Illustrator 24.1.1, SVG Export Plug-In . SVG Version: 6.00 Build 0)  -->
<svg version="1.1" id="Layer_1" xmlns="http://www.w3.org/2000/svg" xmlns:xlink="http://www.w3.org/1999/xlink" x="0px" y="0px"
	 viewBox="0 0 512 512" style="enable-background:new 0 0 512 512;" xml:space="preserve">
<g>
	<path d="M249.3,0.2l-8.3,1.9c-29.7,6.7-50.5,33.4-49.7,63.7v127.5c0,35.2,28.5,63.7,63.7,63.8c35.2,0,63.8-28.5,63.8-63.7v-0.1
		V65.9C320,30.7,292.5,1.2,257.3,0L249.3,0.2z M86.2,129.6c-13.6,4.5-22.4,17.6-21.7,31.9v31.9c0,94.3,69.5,171.4,159.3,187.4v67.6
		H192c-35.1,0-63.7,28.7-63.7,63.7h255.5c0-35.1-28.7-63.7-63.7-63.7h-31.9v-67.6c89.9-15.3,159.3-93,159.3-187.4v-31.9
		c0-17.6-14.3-31.9-31.9-31.9c-17.6,0-31.9,14.3-31.9,31.9v31.9c0,70.7-56.7,127.5-127.5,127.5s-127.5-56.7-127.5-127.5v-31.9
		c0.3-17.6-13.7-32.1-31.3-32.4l-6.3,0.5h-3.8H86.2z"/>
</g>
</svg>
