<svg class="svg-icon" style="width: 1em; height: 1em;vertical-align: middle;fill: currentColor;overflow: hidden;" viewBox="0 0 1024 1024" version="1.1" xmlns="http://www.w3.org/2000/svg"><path d="M376.032 512c0 13.664 2.624 26.592 6.4 39.04l41.888-41.92a87.808 87.808 0 0 1 84.864-84.832l41.888-41.888a133.696 133.696 0 0 0-39.04-6.4 136.128 136.128 0 0 0-136 136zM514.784 599.712l-41.856 41.856c12.448 3.808 25.408 6.432 39.104 6.432a136.128 136.128 0 0 0 136-136c0-13.696-2.656-26.624-6.4-39.136l-41.888 41.888a87.808 87.808 0 0 1-84.96 84.96z"  /><path d="M743.904 376c-0.896-0.896-1.92-1.664-2.848-2.56l-33.952 33.984c0.928 0.928 1.984 1.728 2.976 2.656L817.536 512l-107.392 101.952a279.872 279.872 0 0 1-198.08 81.696 281.184 281.184 0 0 1-81.216-11.936L393.28 721.28c37.44 14.496 77.504 22.336 118.784 22.368a327.68 327.68 0 0 0 231.872-95.616l137.28-136-137.312-136.032zM282.944 650.496l33.984-33.952c-0.96-0.928-1.984-1.696-2.944-2.624L206.528 512l107.392-101.92A279.872 279.872 0 0 1 512 328.384c27.84 0 55.168 4.064 81.152 11.904L630.72 302.72a328.16 328.16 0 0 0-350.592 73.248L142.88 512l137.28 136c0.896 0.896 1.856 1.632 2.784 2.496zM207.04 783.04l576-576 33.92 33.92-576 576z"  /></svg>