<svg class="svg-icon" style="width: 1em; height: 1em;vertical-align: middle;fill: currentColor;overflow: hidden;" viewBox="0 0 1024 1024" version="1.1" xmlns="http://www.w3.org/2000/svg"><path d="M512 883A488.21 488.21 0 0 1 40.67 521.85L38 512l2.65-9.85a488.12 488.12 0 0 1 877.19-144.23 485 485 0 0 1 65.49 144.23L986 512l-2.65 9.85A487.52 487.52 0 0 1 512 883zM116.85 512a409.16 409.16 0 0 0 52.48 111.81 412.08 412.08 0 0 0 685.34 0A409.16 409.16 0 0 0 907.15 512a409.16 409.16 0 0 0-52.48-111.81 412.08 412.08 0 0 0-685.34 0A409.16 409.16 0 0 0 116.85 512z"  /><path d="M512 681c-93.19 0-169-75.81-169-169s75.81-169 169-169 169 75.81 169 169-75.81 169-169 169z m0-274a105 105 0 1 0 105 105 105.12 105.12 0 0 0-105-105z"  /></svg>