<svg xmlns="http://www.w3.org/2000/svg" xmlns:xlink="http://www.w3.org/1999/xlink" width="147.043" height="147.043" viewBox="0 0 147.043 147.043"><defs><style>.a{opacity:0.3;isolation:isolate;fill:url(#a);}.b{fill:#e8e9ed;}</style><linearGradient id="a" y1="0.5" x2="1" y2="0.5" gradientUnits="objectBoundingBox"><stop offset="0"/><stop offset="1"/></linearGradient></defs><g transform="translate(-1478.698 -870.892)"><rect class="a" width="147.043" height="147.043" rx="5" transform="translate(1625.74 870.892) rotate(90)"/><path class="b" d="M1554.208,944.414q0,6.7,0,13.4a2.364,2.364,0,0,1-2.626,2.51,2.663,2.663,0,0,1-1.15-.454c-3.6-2.367-7.187-4.762-10.792-7.123a2.347,2.347,0,0,0-1.162-.359c-1.511-.042-3.023-.007-4.534-.023a4,4,0,0,1-4.218-4.233q-.009-3.7,0-7.4a4.016,4.016,0,0,1,4.245-4.279c1.512-.009,3.024.021,4.534-.016a2.218,2.218,0,0,0,1.1-.333q5.446-3.543,10.861-7.14a2.4,2.4,0,0,1,3.8,2.048q-.009,6.7,0,13.4Z"/><path class="b" d="M1574.718,943.82A16.024,16.024,0,0,1,1564.3,959.3a1.61,1.61,0,0,1-1.85-.285,1.3,1.3,0,0,1-.307-1.643,2.641,2.641,0,0,1,1.183-.963,12.794,12.794,0,0,0,0-23.964c-.928-.351-1.364-.88-1.329-1.613a1.537,1.537,0,0,1,2.167-1.341,15.857,15.857,0,0,1,10.556,14.329Z"/><path class="b" d="M1567.558,943.89a8.83,8.83,0,0,1-6.522,8.886,2.557,2.557,0,0,1-1.412-.067,1.344,1.344,0,0,1-.824-1.462,1.5,1.5,0,0,1,1.254-1.37,5.61,5.61,0,0,0,.263-10.9,4.921,4.921,0,0,1-.641-.177,1.547,1.547,0,0,1-.889-1.754,1.406,1.406,0,0,1,1.567-1.143,9.54,9.54,0,0,1,2.688.907A8.354,8.354,0,0,1,1567.558,943.89Z"/></g></svg>