<svg xmlns="http://www.w3.org/2000/svg" xmlns:xlink="http://www.w3.org/1999/xlink" width="224.805" height="33.269" viewBox="0 0 224.805 33.269">
  <defs>
    <linearGradient id="linear-gradient" y1="0.5" x2="1" y2="0.5" gradientUnits="objectBoundingBox">
      <stop offset="0" stop-color="#4981f2"/>
      <stop offset="0.196" stop-color="#437bef"/>
      <stop offset="0.449" stop-color="#356be9"/>
      <stop offset="0.731" stop-color="#1d50de"/>
      <stop offset="1" stop-color="#0031d1"/>
    </linearGradient>
  </defs>
  <g id="Group_550" data-name="Group 550" transform="translate(-249.887 -175.999)">
    <g id="Group_141" data-name="Group 141" transform="translate(370.731 203.414)">
      <path id="Path_156" data-name="Path 156" d="M253.121,285.25a1.826,1.826,0,0,1-.533-.181c-.12-.071-.168-.143-.143-.214a.712.712,0,0,1,.2-.263c.105-.1.184-.148.233-.148a.655.655,0,0,1,.207.065,2.192,2.192,0,0,0,.991.222,1.8,1.8,0,0,0,.914-.263,1.55,1.55,0,0,0,.668-.872q.206-.591-.023-.838a1.111,1.111,0,0,0-.83-.247h-.271a.1.1,0,0,1-.1-.057.31.31,0,0,1,.025-.189l.032-.091a.47.47,0,0,1,.107-.189.2.2,0,0,1,.143-.058h.238a1.363,1.363,0,0,0,.7-.177,1.756,1.756,0,0,0,.772-.9.636.636,0,0,0-.03-.547q-.137-.242-.671-.242a2.475,2.475,0,0,0-.593.061,4.3,4.3,0,0,0-.485.152.861.861,0,0,1-.2.058c-.044,0-.081-.054-.111-.164a.449.449,0,0,1-.011-.263c.04-.115.249-.217.624-.3a4.5,4.5,0,0,1,1-.132,1.366,1.366,0,0,1,1.079.37,1.052,1.052,0,0,1,.072,1.085,1.616,1.616,0,0,1-.488.7,2.3,2.3,0,0,1-.757.436l-.012.033a.828.828,0,0,1,.545.51,1.379,1.379,0,0,1-.039,1,2.4,2.4,0,0,1-.618.978,2.622,2.622,0,0,1-.892.564,2.688,2.688,0,0,1-.925.176A4,4,0,0,1,253.121,285.25Z" transform="translate(-252.439 -279.469)" fill="#4981f2"/>
      <path id="Path_157" data-name="Path 157" d="M266.48,285.244a.227.227,0,0,1,.009-.189l1.844-5.262a.384.384,0,0,1,.123-.189.342.342,0,0,1,.209-.058h1.661a1.779,1.779,0,0,1,1.6.686,2.553,2.553,0,0,1-.073,2.191,4.437,4.437,0,0,1-1.464,2.2,3.449,3.449,0,0,1-2.085.682h-1.661C266.561,285.3,266.505,285.282,266.48,285.244Zm1.991-.567a2.442,2.442,0,0,0,1.53-.543,3.6,3.6,0,0,0,1.11-1.71,2.126,2.126,0,0,0,.088-1.706,1.216,1.216,0,0,0-1.149-.547h-1.126l-1.579,4.506Z" transform="translate(-257.4 -279.496)" fill="#4981f2"/>
      <path id="Path_158" data-name="Path 158" d="M291.775,285.208a1.243,1.243,0,0,1-.536-.279c-.077-.077-.105-.145-.084-.206a.881.881,0,0,1,.206-.271q.172-.173.237-.173a.385.385,0,0,1,.144.083,2.267,2.267,0,0,0,.463.238,1.878,1.878,0,0,0,.66.1,1.514,1.514,0,0,0,.871-.267,1.385,1.385,0,0,0,.547-.7.668.668,0,0,0,.013-.506.745.745,0,0,0-.286-.321,5.517,5.517,0,0,0-.576-.292,4.217,4.217,0,0,1-.635-.345.819.819,0,0,1-.314-.464,1.37,1.37,0,0,1,.087-.81,2.055,2.055,0,0,1,.5-.789,2.429,2.429,0,0,1,.83-.538,2.726,2.726,0,0,1,1.026-.194,2.531,2.531,0,0,1,.6.078,1.06,1.06,0,0,1,.461.21c.086.066.116.137.089.213a.9.9,0,0,1-.2.264q-.163.173-.22.173a.2.2,0,0,1-.1-.041.767.767,0,0,1-.083-.058,1.427,1.427,0,0,0-.78-.214,1.533,1.533,0,0,0-.856.247,1.313,1.313,0,0,0-.531.682.589.589,0,0,0-.014.452.574.574,0,0,0,.238.259q.155.086.552.267a4.064,4.064,0,0,1,.677.366.935.935,0,0,1,.352.51,1.4,1.4,0,0,1-.08.851,2.264,2.264,0,0,1-.9,1.168,2.612,2.612,0,0,1-1.481.427A3,3,0,0,1,291.775,285.208Z" transform="translate(-266.133 -279.469)" fill="#4981f2"/>
      <path id="Path_159" data-name="Path 159" d="M306.466,285.137l1.74-4.966h-1.579a.1.1,0,0,1-.1-.057.315.315,0,0,1,.025-.189l.046-.132a.471.471,0,0,1,.107-.189.2.2,0,0,1,.144-.058H310.7c.06,0,.1.019.107.058a.353.353,0,0,1-.029.189l-.047.132a.509.509,0,0,1-.1.189.2.2,0,0,1-.147.057H308.93l-1.74,4.966q-.064.181-.392.181h-.066C306.512,285.318,306.424,285.257,306.466,285.137Z" transform="translate(-271.548 -279.496)" fill="#4981f2"/>
      <path id="Path_160" data-name="Path 160" d="M318.413,285.137l1.872-5.344a.385.385,0,0,1,.124-.189.341.341,0,0,1,.209-.058H322a2.017,2.017,0,0,1,1.362.349q.375.35.11,1.106a2.127,2.127,0,0,1-.548.859,2.435,2.435,0,0,1-.884.531l-.012.033a.48.48,0,0,1,.286.321,2.778,2.778,0,0,1,.094.707l.074,1.62a.4.4,0,0,1-.015.115q-.047.131-.392.131h-.082a.47.47,0,0,1-.2-.037c-.052-.025-.079-.056-.082-.094l-.06-1.612a.82.82,0,0,0-.229-.637,1.165,1.165,0,0,0-.714-.169h-.74l-.83,2.368q-.063.181-.392.181h-.066Q318.35,285.318,318.413,285.137Zm2.857-2.993a1.336,1.336,0,0,0,.58-.14,1.745,1.745,0,0,0,.512-.37,1.383,1.383,0,0,0,.315-.5.7.7,0,0,0-.042-.723.943.943,0,0,0-.731-.238h-1.028l-.691,1.973Z" transform="translate(-275.774 -279.496)" fill="#4981f2"/>
      <path id="Path_161" data-name="Path 161" d="M332.881,285.244a.226.226,0,0,1,.008-.189l1.844-5.262a.389.389,0,0,1,.124-.189.341.341,0,0,1,.209-.058h2.869c.06,0,.1.019.107.058a.347.347,0,0,1-.029.189l-.046.132a.518.518,0,0,1-.1.189.2.2,0,0,1-.148.057h-2.392l-.657,1.875h2.146c.06,0,.1.019.107.058a.348.348,0,0,1-.029.189l-.047.132a.506.506,0,0,1-.1.189.2.2,0,0,1-.148.058h-2.145l-.7,2.006h2.4c.06,0,.1.019.107.058a.356.356,0,0,1-.029.189l-.046.131a.513.513,0,0,1-.1.189.2.2,0,0,1-.148.057h-2.878C332.962,285.3,332.905,285.282,332.881,285.244Z" transform="translate(-280.89 -279.496)" fill="#4981f2"/>
      <path id="Path_162" data-name="Path 162" d="M345.378,285.169a.538.538,0,0,1,.065-.115l3.841-5.4a.439.439,0,0,1,.375-.131h.238c.2,0,.291.043.283.131l.053,5.41a.253.253,0,0,1-.013.107q-.048.14-.4.14h-.065c-.193,0-.286-.044-.283-.131l-.012-1.349H347.04l-.941,1.349a.429.429,0,0,1-.375.131h-.041Q345.329,285.309,345.378,285.169Zm4.076-1.965,0-2.45a3.9,3.9,0,0,1,.069-.477H349.5a4.655,4.655,0,0,1-.291.477l-1.722,2.45Z" transform="translate(-285.315 -279.487)" fill="#4981f2"/>
      <path id="Path_163" data-name="Path 163" d="M363.8,283.582l-.571-2.548c-.021-.083-.043-.206-.068-.37l-.035.008c-.024.1-.071.25-.142.452l-1.4,4q-.063.181-.392.181h-.057q-.329,0-.265-.181l1.9-5.426q.063-.18.392-.18h.3c.175,0,.273.049.293.147l.609,2.7a1.579,1.579,0,0,1,.032.518,5.084,5.084,0,0,1,.445-.543l2.449-2.672a.512.512,0,0,1,.4-.147h.271c.219,0,.308.06.266.18l-1.9,5.426c-.042.121-.173.181-.392.181h-.057c-.22,0-.308-.06-.266-.181l1.386-3.955q.107-.3.175-.452l-.03-.008c-.139.165-.249.288-.326.37l-2.315,2.5a.285.285,0,0,1-.218.107h-.329A.126.126,0,0,1,363.8,283.582Z" transform="translate(-290.793 -279.487)" fill="#4981f2"/>
      <path id="Path_164" data-name="Path 164" d="M378.363,285.128l1.9-5.426q.063-.18.392-.18h.066q.329,0,.266.18l-1.9,5.426q-.063.181-.392.181h-.066Q378.3,285.309,378.363,285.128Z" transform="translate(-296.982 -279.487)" fill="#4981f2"/>
      <path id="Path_165" data-name="Path 165" d="M388.554,285.128l1.9-5.426q.063-.18.392-.18h.173a.478.478,0,0,1,.2.032.185.185,0,0,1,.092.123l1.216,3.9a2.412,2.412,0,0,1,.1.493l.036-.008q.049-.19.18-.56l1.331-3.8q.064-.18.392-.18h.057c.219,0,.308.06.266.18l-1.9,5.426c-.042.121-.173.181-.392.181h-.164c-.143,0-.226-.038-.247-.115l-1.248-4a2.424,2.424,0,0,1-.1-.493l-.036.008c-.034.126-.093.313-.18.559l-1.351,3.856c-.042.121-.173.181-.392.181h-.057Q388.491,285.309,388.554,285.128Z" transform="translate(-300.587 -279.487)" fill="#4981f2"/>
      <path id="Path_166" data-name="Path 166" d="M409.6,282.364a.225.225,0,0,1-.008.189l-.764,2.179q-.113.321-.673.456a5.912,5.912,0,0,1-1.367.136,1.712,1.712,0,0,1-1.64-.715,2.726,2.726,0,0,1,.108-2.162q1.043-2.976,3.707-2.977a3.248,3.248,0,0,1,.725.078,1.594,1.594,0,0,1,.522.2c.121.082.17.159.145.23a.959.959,0,0,1-.206.3q-.166.181-.24.181a.686.686,0,0,1-.174-.1,1.522,1.522,0,0,0-.389-.181,1.913,1.913,0,0,0-.585-.078,2.447,2.447,0,0,0-1.69.576,4,4,0,0,0-1.04,1.7,2.841,2.841,0,0,0-.184,1.7q.191.629,1.21.629.3,0,.606-.028a3.262,3.262,0,0,0,.492-.078l.582-1.661h-.962c-.055,0-.089-.019-.1-.058a.311.311,0,0,1,.025-.189l.046-.132a.479.479,0,0,1,.107-.189.2.2,0,0,1,.143-.058h1.439C409.52,282.306,409.576,282.325,409.6,282.364Z" transform="translate(-306.399 -279.469)" fill="#4981f2"/>
    </g>
    <g id="Group_142" data-name="Group 142" transform="translate(370.859 177.246)">
      <path id="Path_167" data-name="Path 167" d="M264.8,254.891h-6.362a.584.584,0,0,1-.462-.216.6.6,0,0,1-.139-.509l.585-2.511h8.411l1.048-4.714H259.52l.631-2.727a.74.74,0,0,1,.262-.37.6.6,0,0,1,.354-.138h12.279l1.093-4.73H259.905q-3.189,0-4.391,3.421l-2.773,11.924a4.16,4.16,0,0,0,.916,3.7,4.38,4.38,0,0,0,3.52,1.6h12.171q.6-2.557,1.093-4.714H264.8Z" transform="translate(-252.637 -238.977)" fill="#fff"/>
      <path id="Path_168" data-name="Path 168" d="M290.179,238.977q-3.051,0-4.267,3.421l-4.221,17.223h4.868l1.386-5.684h8.762l-1.383,5.684h4.9l5.006-20.644Zm7.684,10.229h-8.778l1.217-4.991a.673.673,0,0,1,.238-.37.567.567,0,0,1,.346-.138h8.319Z" transform="translate(-262.915 -238.977)" fill="#fff"/>
      <path id="Path_169" data-name="Path 169" d="M326.228,246.942l-1.048,4.714h5.3l-.648,2.727a.488.488,0,0,1-.193.37.565.565,0,0,1-.346.139h-7.98a.617.617,0,0,1-.616-.724l2.326-9.952a.74.74,0,0,1,.262-.37.6.6,0,0,1,.354-.138h13.85v.046l1.125-4.776H322.782q-3.188,0-4.391,3.421L315.6,254.321a4.16,4.16,0,0,0,.916,3.7,4.363,4.363,0,0,0,3.5,1.6h10.121q3.2,0,4.406-3.42.231-.925.431-1.8,1.079-4.544,1.757-7.456H326.228Z" transform="translate(-274.875 -238.977)" fill="#fff"/>
      <path id="Path_170" data-name="Path 170" d="M361.1,254.891H354.68a.616.616,0,0,1-.616-.724l.909-3.866h-.015l2.634-11.323h-1.464a4.57,4.57,0,0,0-2.834.932,4.25,4.25,0,0,0-1.6,2.488L348.9,254.321a4.092,4.092,0,0,0,.924,3.7,4.481,4.481,0,0,0,3.574,1.6H365.71q.184-.755.354-1.479.4-1.725.755-3.236H361.1Z" transform="translate(-286.653 -238.977)" fill="#fff"/>
      <path id="Path_171" data-name="Path 171" d="M387.615,243.845a.6.6,0,0,1,.355-.138h12.278l1.093-4.73H387.107q-3.189,0-4.391,3.421l-2.773,11.924a4.161,4.161,0,0,0,.916,3.7,4.38,4.38,0,0,0,3.52,1.6h12.171q.6-2.557,1.093-4.714h-5.638v-.015h-6.362a.584.584,0,0,1-.462-.216.6.6,0,0,1-.139-.509l.585-2.511h8.411l1.048-4.714h-8.365l.631-2.727A.743.743,0,0,1,387.615,243.845Z" transform="translate(-297.636 -238.977)" fill="#fff"/>
    </g>
    <path id="Path_172" data-name="Path 172" d="M390.369,187.59c-1.43-1.722-6.1-2.486-6.1-2.486s-5.554-.8-12.657-1.546c-7.691-.805-9.061.169-11.981,1.423-1.444.62-4.789,2.015-5.467,2.272,7.349,5.589,15.848,11.194,23.075,9.927,1.468-.8,5.093-2.658,6.3-3.158,5.383-2.237,10.488,2.292,10.488,2.292S391.8,189.312,390.369,187.59Z" transform="translate(-36.89 -2.57)" fill="#fff"/>
    <path id="Path_173" data-name="Path 173" d="M302.152,188.325c-15-14.039-30.267-5.805-30.267-5.805l-5.622,2.82a27.292,27.292,0,0,1,6.007-.838c5.748-.427,13.557.881,21.3,8.128,12.092,11.317,21.681,15.946,28.255,16.037a14.3,14.3,0,0,0,3.951-1.313l6.063-3.041C325.263,204.938,315.156,200.5,302.152,188.325Z" transform="translate(-5.793 -1.458)" fill="url(#linear-gradient)"/>
    <path id="Path_174" data-name="Path 174" d="M284.977,197.159c-15-14.039-30.267-5.805-30.267-5.805l-4.822,2.419c1.928-.938,16.077-7.113,30.038,5.92,18.859,17.606,28.163,14.079,34.739,13.454h0C308.088,213.772,297.981,209.33,284.977,197.159Z" transform="translate(0 -4.583)" fill="url(#linear-gradient)"/>
    <path id="Path_175" data-name="Path 175" d="M324.486,185.349h0l-.006,0c-.107-.089-.215-.183-.321-.273a43.444,43.444,0,0,0-40.283-6.9c5.729-1.466,16.2-2.135,26.542,7.548,9.911,9.276,18.174,14.159,24.529,15.786a13.291,13.291,0,0,0,8.442-1.321l6.068-3.044C343.7,197.689,335.232,194.355,324.486,185.349Z" transform="translate(-12.024 0)" fill="url(#linear-gradient)"/>
  </g>
</svg>
